<svg width="47" height="47" viewBox="0 0 47 47" fill="none" xmlns="http://www.w3.org/2000/svg">
<path fill-rule="evenodd" clip-rule="evenodd" d="M23.4918 1.1748C17.9477 1.17768 12.5854 3.14129 8.36374 6.71451C4.14207 10.2877 1.33632 15.2376 0.448189 20.6789C-0.439945 26.1203 0.647438 31.6983 3.51593 36.4157C6.38441 41.133 10.8469 44.6821 16.1056 46.4281C17.2657 46.6435 17.7027 45.9244 17.7027 45.3131C17.7027 44.7017 17.6795 42.9291 17.6717 40.9911C11.175 42.3946 9.80215 38.2495 9.80215 38.2495C8.74256 35.558 7.21117 34.8505 7.21117 34.8505C5.09199 33.4124 7.36974 33.4393 7.36974 33.4393C9.71709 33.6046 10.9507 35.8348 10.9507 35.8348C13.0312 39.3839 16.4149 38.3572 17.7452 37.7574C17.954 36.2539 18.5612 35.2311 19.2302 34.6505C14.0405 34.066 8.58787 32.0743 8.58787 23.1766C8.55571 20.8691 9.41689 18.6375 10.9932 16.9437C10.7535 16.3592 9.95296 13.9983 11.2214 10.7915C11.2214 10.7915 13.182 10.1686 17.6447 13.1716C21.4725 12.1308 25.5111 12.1308 29.3389 13.1716C33.7977 10.1686 35.7544 10.7915 35.7544 10.7915C37.0267 13.9906 36.2262 16.3515 35.9865 16.9437C37.5678 18.6378 38.4308 20.8733 38.3957 23.1843C38.3957 32.1012 32.9314 34.066 27.734 34.639C28.5693 35.3619 29.3157 36.773 29.3157 38.9417C29.3157 42.0485 29.2886 44.5479 29.2886 45.3131C29.2886 45.9321 29.7101 46.655 30.8934 46.4281C36.1527 44.6818 40.6157 41.1322 43.4841 36.414C46.3525 31.6959 47.4394 26.117 46.5502 20.6751C45.6611 15.2333 42.8539 10.2834 38.6309 6.71078C34.4078 3.13817 29.0443 1.17586 23.4995 1.1748H23.4918Z" fill="#191717"/>
<path d="M8.98143 34.516C8.93116 34.6314 8.74553 34.666 8.59472 34.5852C8.4439 34.5045 8.33176 34.3545 8.3859 34.2353C8.44004 34.1161 8.6218 34.0854 8.77261 34.1661C8.92343 34.2469 9.03944 34.4007 8.98143 34.516Z" fill="#191717"/>
<path d="M9.9292 35.5657C9.84912 35.6058 9.75749 35.617 9.67002 35.5973C9.58254 35.5777 9.50466 35.5284 9.44968 35.458C9.29887 35.2965 9.26791 35.0735 9.38393 34.9735C9.49994 34.8735 9.70878 34.9197 9.8596 35.0812C10.0104 35.2427 10.0452 35.4657 9.9292 35.5657Z" fill="#191717"/>
<path d="M10.8494 36.8997C10.7063 36.9996 10.4627 36.8997 10.3273 36.6997C10.2899 36.6639 10.2601 36.6209 10.2398 36.5733C10.2195 36.5257 10.209 36.4746 10.209 36.4229C10.209 36.3712 10.2195 36.32 10.2398 36.2725C10.2601 36.2249 10.2899 36.1819 10.3273 36.146C10.4704 36.0499 10.7141 36.146 10.8494 36.3421C10.9848 36.5382 10.9886 36.7997 10.8494 36.8997V36.8997Z" fill="#191717"/>
<path d="M12.0991 38.1917C11.9715 38.334 11.7124 38.2956 11.4997 38.1033C11.287 37.9111 11.2367 37.6496 11.3643 37.5112C11.4919 37.3727 11.751 37.4112 11.9715 37.5996C12.1919 37.788 12.2344 38.0533 12.0991 38.1917V38.1917Z" fill="#191717"/>
<path d="M13.8504 38.9452C13.7924 39.126 13.5294 39.2067 13.2665 39.1298C13.0035 39.0529 12.8295 38.8376 12.8797 38.653C12.93 38.4684 13.1969 38.3839 13.4637 38.4684C13.7305 38.553 13.9007 38.7568 13.8504 38.9452Z" fill="#191717"/>
<path d="M15.7613 39.0762C15.7613 39.2646 15.5448 39.4261 15.2664 39.43C14.9879 39.4338 14.7598 39.28 14.7598 39.0916C14.7598 38.9032 14.9763 38.7417 15.2547 38.7379C15.5332 38.734 15.7613 38.884 15.7613 39.0762Z" fill="#191717"/>
<path d="M17.5398 38.7801C17.5746 38.9685 17.3812 39.1646 17.1028 39.2108C16.8243 39.2569 16.5807 39.1454 16.5459 38.9608C16.5111 38.7763 16.7122 38.5763 16.9829 38.5263C17.2536 38.4763 17.505 38.5917 17.5398 38.7801Z" fill="#191717"/>
</svg>
