<svg width="48" height="48" viewBox="0 0 48 48" fill="none" xmlns="http://www.w3.org/2000/svg">
<g clip-path="url(#clip0_103_1296)">
<path d="M0.712891 7.01064C0.712891 5.49838 1.24218 4.25079 2.30073 3.26788C3.35927 2.28492 4.73543 1.79346 6.42911 1.79346C8.09257 1.79346 9.43842 2.27734 10.4668 3.24519C11.5253 4.24326 12.0546 5.54375 12.0546 7.14674C12.0546 8.59848 11.5404 9.80823 10.5121 10.7761C9.45358 11.7742 8.06231 12.2732 6.33837 12.2732H6.29301C4.62954 12.2732 3.28369 11.7742 2.25536 10.7761C1.22703 9.77801 0.712891 8.52285 0.712891 7.01064ZM1.30266 46.7066V16.4016H11.3741V46.7066H1.30266ZM16.9542 46.7066H27.0256V29.7848C27.0256 28.7262 27.1466 27.9096 27.3886 27.335C27.812 26.3066 28.4547 25.4371 29.3167 24.7264C30.1786 24.0156 31.2599 23.6603 32.5604 23.6603C35.9478 23.6603 37.6415 25.9437 37.6415 30.5106V46.7066H47.7129V29.3311C47.7129 24.8549 46.6543 21.46 44.5372 19.1463C42.4201 16.8325 39.6225 15.6757 36.1444 15.6757C32.2428 15.6757 29.2032 17.3543 27.0256 20.7114V20.8021H26.9803L27.0256 20.7114V16.4016H16.9542C17.0147 17.3694 17.0449 20.3787 17.0449 25.4296C17.0449 30.4804 17.0147 37.5727 16.9542 46.7066Z" fill="#0A66C2"/>
</g>
<defs>
<clipPath id="clip0_103_1296">
<rect width="47" height="47" fill="white" transform="translate(0.712891 0.740723)"/>
</clipPath>
</defs>
</svg>
