<svg width="47" height="47" viewBox="0 0 47 47" fill="none" xmlns="http://www.w3.org/2000/svg">
<path d="M26.5108 23.9461C26.5108 31.3304 20.5761 37.3166 13.2556 37.3166C5.93518 37.3166 0 31.3291 0 23.9461C0 16.5631 5.93473 10.5752 13.2556 10.5752C20.5765 10.5752 26.5108 16.5618 26.5108 23.9461Z" fill="black"/>
<path d="M41.0525 23.9461C41.0525 30.8968 38.0852 36.5338 34.4247 36.5338C30.7642 36.5338 27.7969 30.8968 27.7969 23.9461C27.7969 16.9953 30.7638 11.3584 34.4242 11.3584C38.0847 11.3584 41.0521 16.9935 41.0521 23.9461" fill="black"/>
<path d="M46.9995 23.946C46.9995 30.1722 45.956 35.2226 44.6685 35.2226C43.3809 35.2226 42.3379 30.1735 42.3379 23.946C42.3379 17.7185 43.3814 12.6694 44.6685 12.6694C45.9556 12.6694 46.9995 17.718 46.9995 23.946Z" fill="black"/>
</svg>
