<svg width="48" height="48" viewBox="0 0 48 48" fill="none" xmlns="http://www.w3.org/2000/svg">
<g clip-path="url(#clip0_103_1278)">
<path d="M27.2237 24.6868C27.2237 32.0711 21.289 38.0573 13.9685 38.0573C6.64807 38.0573 0.712891 32.0698 0.712891 24.6868C0.712891 17.3039 6.64762 11.3159 13.9685 11.3159C21.2894 11.3159 27.2237 17.3025 27.2237 24.6868Z" fill="black"/>
<path d="M41.7654 24.6868C41.7654 31.6375 38.798 37.2745 35.1376 37.2745C31.4771 37.2745 28.5098 31.6375 28.5098 24.6868C28.5098 17.7361 31.4767 12.0991 35.1371 12.0991C38.7976 12.0991 41.765 17.7343 41.765 24.6868" fill="black"/>
<path d="M47.7124 24.6867C47.7124 30.9129 46.6689 35.9633 45.3813 35.9633C44.0938 35.9633 43.0508 30.9142 43.0508 24.6867C43.0508 18.4592 44.0942 13.4102 45.3813 13.4102C46.6685 13.4102 47.7124 18.4588 47.7124 24.6867Z" fill="black"/>
</g>
<defs>
<clipPath id="clip0_103_1278">
<rect x="0.712891" y="0.740723" width="47" height="47" rx="6" fill="white"/>
</clipPath>
</defs>
</svg>
