<svg width="25" height="25" viewBox="0 0 25 25" fill="none" xmlns="http://www.w3.org/2000/svg">
<path d="M22.1794 3.14902H3.24599C2.8771 3.14902 2.52332 3.29557 2.26247 3.55641C2.00162 3.81726 1.85508 4.17105 1.85508 4.53994V20.0309C1.85508 20.3998 2.00162 20.7536 2.26247 21.0144C2.52331 21.2753 2.8771 21.4218 3.24599 21.4218H22.1794C22.5483 21.4218 22.9021 21.2753 23.1629 21.0144C23.4238 20.7536 23.5703 20.3998 23.5703 20.0309V4.53994C23.5703 4.17104 23.4238 3.81726 23.1629 3.55641C22.9021 3.29557 22.5483 3.14902 22.1794 3.14902ZM22.5097 20.0309C22.5097 20.1185 22.4749 20.2025 22.413 20.2645C22.351 20.3264 22.267 20.3612 22.1794 20.3612H3.24599C3.15839 20.3612 3.07438 20.3264 3.01243 20.2645C2.95049 20.2025 2.91569 20.1185 2.91569 20.0309V4.53994C2.91569 4.45234 2.95049 4.36832 3.01243 4.30638C3.07438 4.24443 3.15839 4.20963 3.24599 4.20963H22.1794C22.267 4.20963 22.351 4.24443 22.413 4.30638C22.4749 4.36832 22.5097 4.45234 22.5097 4.53994V20.0309Z" fill="#313131" stroke="#313131" stroke-width="0.2"/>
<path d="M18.5999 18.3236H18.7499V18.1736V16.211C18.7499 15.3593 18.016 14.6349 16.9387 14.1322C15.8493 13.6238 14.3547 13.3133 12.712 13.3133C11.0693 13.3133 9.57481 13.6238 8.48533 14.1322C7.40803 14.6349 6.67422 15.3593 6.67422 16.211V18.1736V18.3236H6.82422H18.5999ZM12.712 14.3984C14.1076 14.3984 15.3642 14.6163 16.2664 14.9634C16.7181 15.1372 17.0732 15.3403 17.3129 15.5583C17.5526 15.7762 17.6648 15.997 17.6648 16.211V17.2385H7.75926V16.211C7.75926 15.997 7.87151 15.7762 8.11116 15.5583C8.35083 15.3403 8.70602 15.1372 9.15764 14.9634C10.0599 14.6163 11.3165 14.3984 12.712 14.3984ZM14.761 7.09665C14.2176 6.55324 13.4805 6.24795 12.712 6.24795C11.9435 6.24795 11.2065 6.55324 10.6631 7.09665C10.1197 7.64007 9.81439 8.37709 9.81439 9.1456C9.81439 9.9141 10.1197 10.6511 10.6631 11.1945C11.2065 11.738 11.9435 12.0432 12.712 12.0432C13.4805 12.0432 14.2176 11.738 14.761 11.1945C15.3044 10.6511 15.6097 9.9141 15.6097 9.1456C15.6097 8.37709 15.3044 7.64007 14.761 7.09665ZM11.4303 7.86389C11.7703 7.52396 12.2313 7.33299 12.712 7.33299C13.1928 7.33299 13.6538 7.52396 13.9937 7.86389C14.3337 8.20382 14.5246 8.66486 14.5246 9.1456C14.5246 9.62633 14.3337 10.0874 13.9937 10.4273C13.6538 10.7672 13.1928 10.9582 12.712 10.9582C12.2313 10.9582 11.7703 10.7672 11.4303 10.4273C11.0904 10.0874 10.8994 9.62633 10.8994 9.1456C10.8994 8.66486 11.0904 8.20382 11.4303 7.86389Z" fill="#313131" stroke="#313131" stroke-width="0.3"/>
</svg>
