<svg width="25" height="25" viewBox="0 0 25 25" fill="none" xmlns="http://www.w3.org/2000/svg">
<path d="M10.5322 4.65201H5.07974V19.9188H10.5322V4.65201ZM20.3465 4.65201H14.8941V10.1044H20.3465V4.65201ZM20.3465 14.4664V19.9188H14.8941V14.4664H20.3465ZM3.98926 4.65201C3.98926 4.36279 4.10415 4.08542 4.30865 3.88092C4.51316 3.67641 4.79053 3.56152 5.07974 3.56152H10.5322C10.8214 3.56152 11.0987 3.67641 11.3033 3.88092C11.5078 4.08542 11.6227 4.36279 11.6227 4.65201V19.9188C11.6227 20.208 11.5078 20.4854 11.3033 20.6899C11.0987 20.8944 10.8214 21.0093 10.5322 21.0093H5.07974C4.79053 21.0093 4.51316 20.8944 4.30865 20.6899C4.10415 20.4854 3.98926 20.208 3.98926 19.9188V4.65201ZM13.8036 4.65201C13.8036 4.36279 13.9185 4.08542 14.123 3.88092C14.3275 3.67641 14.6049 3.56152 14.8941 3.56152H20.3465C20.6357 3.56152 20.9131 3.67641 21.1176 3.88092C21.3221 4.08542 21.437 4.36279 21.437 4.65201V10.1044C21.437 10.3936 21.3221 10.671 21.1176 10.8755C20.9131 11.08 20.6357 11.1949 20.3465 11.1949H14.8941C14.6049 11.1949 14.3275 11.08 14.123 10.8755C13.9185 10.671 13.8036 10.3936 13.8036 10.1044V4.65201ZM14.8941 13.3759C14.6049 13.3759 14.3275 13.4908 14.123 13.6953C13.9185 13.8998 13.8036 14.1772 13.8036 14.4664V19.9188C13.8036 20.208 13.9185 20.4854 14.123 20.6899C14.3275 20.8944 14.6049 21.0093 14.8941 21.0093H20.3465C20.6357 21.0093 20.9131 20.8944 21.1176 20.6899C21.3221 20.4854 21.437 20.208 21.437 19.9188V14.4664C21.437 14.1772 21.3221 13.8998 21.1176 13.6953C20.9131 13.4908 20.6357 13.3759 20.3465 13.3759H14.8941Z" fill="#313131"/>
</svg>
