<svg width="24" height="24" viewBox="0 0 24 24" fill="none" xmlns="http://www.w3.org/2000/svg">
<path d="M20.1017 5.05566H3.89857C3.59162 5.05566 3.29724 5.1776 3.08019 5.39465C2.86315 5.6117 2.74121 5.90608 2.74121 6.21303V17.7867C2.74121 18.0936 2.86315 18.388 3.08019 18.605C3.29724 18.8221 3.59162 18.944 3.89857 18.944H20.1017C20.4086 18.944 20.703 18.8221 20.9201 18.605C21.1371 18.388 21.259 18.0936 21.259 17.7867V6.21303C21.259 5.90608 21.1371 5.6117 20.9201 5.39465C20.703 5.1776 20.4086 5.05566 20.1017 5.05566V5.05566ZM19.2105 17.7867H4.85919L8.90996 13.597L8.07666 12.7926L3.89857 17.1154V7.09262L11.0916 14.2509C11.3084 14.4665 11.6018 14.5875 11.9075 14.5875C12.2133 14.5875 12.5066 14.4665 12.7235 14.2509L20.1017 6.91323V17.0402L15.8426 12.7811L15.0266 13.597L19.2105 17.7867ZM4.65665 6.21303H19.1642L11.9075 13.4292L4.65665 6.21303Z" fill="#313131"/>
</svg>
