<svg width="25" height="25" viewBox="0 0 25 25" fill="none" xmlns="http://www.w3.org/2000/svg">
<path d="M11.5887 3.88185C11.9082 3.62553 12.3055 3.48584 12.7151 3.48584C13.1247 3.48584 13.5221 3.62553 13.8415 3.88185L20.0418 8.85642C20.2521 9.02517 20.4218 9.23903 20.5384 9.48219C20.655 9.72535 20.7155 9.9916 20.7154 10.2613V19.2856C20.7154 19.763 20.5257 20.2208 20.1882 20.5584C19.8506 20.896 19.3927 21.0856 18.9153 21.0856H16.5152C16.0378 21.0856 15.58 20.896 15.2424 20.5584C14.9048 20.2208 14.7152 19.763 14.7152 19.2856V14.4854C14.7152 14.3263 14.652 14.1737 14.5394 14.0611C14.4269 13.9486 14.2743 13.8854 14.1152 13.8854H11.3151C11.1559 13.8854 11.0033 13.9486 10.8908 14.0611C10.7783 14.1737 10.715 14.3263 10.715 14.4854V19.2856C10.715 19.763 10.5254 20.2208 10.1878 20.5584C9.85024 20.896 9.39239 21.0856 8.91498 21.0856H6.5149C6.0375 21.0856 5.57965 20.896 5.24207 20.5584C4.90449 20.2208 4.71484 19.763 4.71484 19.2856V10.2613C4.71484 9.71565 4.96285 9.19883 5.38847 8.85722L11.5887 3.88265V3.88185ZM13.0903 4.81788C12.9839 4.73258 12.8515 4.68609 12.7151 4.68609C12.5787 4.68609 12.4464 4.73258 12.3399 4.81788L6.13969 9.79245C6.06956 9.84864 6.01295 9.91988 5.97404 10.0009C5.93513 10.0819 5.91492 10.1706 5.91488 10.2605V19.2848C5.91488 19.6168 6.18369 19.8848 6.5149 19.8848H8.91498C9.07412 19.8848 9.22674 19.8216 9.33926 19.709C9.45179 19.5965 9.515 19.4439 9.515 19.2848V14.4846C9.515 14.0072 9.70465 13.5493 10.0422 13.2118C10.3798 12.8742 10.8377 12.6845 11.3151 12.6845H14.1152C14.3516 12.6845 14.5858 12.7311 14.8042 12.8216C15.0226 12.9122 15.2211 13.0448 15.3883 13.2121C15.5554 13.3793 15.688 13.5778 15.7784 13.7963C15.8688 14.0148 15.9153 14.249 15.9152 14.4854V19.2856C15.9152 19.6176 16.184 19.8856 16.5152 19.8856H18.9153C19.0745 19.8856 19.2271 19.8224 19.3396 19.7098C19.4521 19.5973 19.5153 19.4447 19.5153 19.2856V10.2613C19.5154 10.1715 19.4953 10.0828 19.4565 10.0018C19.4178 9.92079 19.3613 9.84952 19.2913 9.79325L13.0911 4.81868L13.0903 4.81788Z" fill="#313131"/>
</svg>
