<svg width="25" height="25" viewBox="0 0 25 25" fill="none" xmlns="http://www.w3.org/2000/svg">
<path d="M10.3203 4.8483H4.86783V20.1151H10.3203V4.8483ZM20.1346 4.8483H14.6822V10.3007H20.1346V4.8483ZM20.1346 14.6627V20.1151H14.6822V14.6627H20.1346ZM3.77734 4.8483C3.77734 4.55908 3.89223 4.28171 4.09674 4.07721C4.30124 3.8727 4.57861 3.75781 4.86783 3.75781H10.3203C10.6095 3.75781 10.8868 3.8727 11.0913 4.07721C11.2958 4.28171 11.4107 4.55908 11.4107 4.8483V20.1151C11.4107 20.4043 11.2958 20.6817 11.0913 20.8862C10.8868 21.0907 10.6095 21.2056 10.3203 21.2056H4.86783C4.57861 21.2056 4.30124 21.0907 4.09674 20.8862C3.89223 20.6817 3.77734 20.4043 3.77734 20.1151V4.8483ZM13.5917 4.8483C13.5917 4.55908 13.7066 4.28171 13.9111 4.07721C14.1156 3.8727 14.393 3.75781 14.6822 3.75781H20.1346C20.4238 3.75781 20.7012 3.8727 20.9057 4.07721C21.1102 4.28171 21.2251 4.55908 21.2251 4.8483V10.3007C21.2251 10.5899 21.1102 10.8673 20.9057 11.0718C20.7012 11.2763 20.4238 11.3912 20.1346 11.3912H14.6822C14.393 11.3912 14.1156 11.2763 13.9111 11.0718C13.7066 10.8673 13.5917 10.5899 13.5917 10.3007V4.8483ZM14.6822 13.5722C14.393 13.5722 14.1156 13.6871 13.9111 13.8916C13.7066 14.0961 13.5917 14.3734 13.5917 14.6627V20.1151C13.5917 20.4043 13.7066 20.6817 13.9111 20.8862C14.1156 21.0907 14.393 21.2056 14.6822 21.2056H20.1346C20.4238 21.2056 20.7012 21.0907 20.9057 20.8862C21.1102 20.6817 21.2251 20.4043 21.2251 20.1151V14.6627C21.2251 14.3734 21.1102 14.0961 20.9057 13.8916C20.7012 13.6871 20.4238 13.5722 20.1346 13.5722H14.6822Z" fill="#313131"/>
</svg>
