<svg width="25" height="25" viewBox="0 0 25 25" fill="none" xmlns="http://www.w3.org/2000/svg">
<path d="M10.3193 4.86685H4.86685V20.1336H10.3193V4.86685ZM20.1336 4.86685H14.6812V10.3193H20.1336V4.86685ZM20.1336 14.6812V20.1336H14.6812V14.6812H20.1336ZM3.77637 4.86685C3.77637 4.57764 3.89126 4.30027 4.09576 4.09576C4.30027 3.89126 4.57764 3.77637 4.86685 3.77637H10.3193C10.6085 3.77637 10.8859 3.89126 11.0904 4.09576C11.2949 4.30027 11.4098 4.57764 11.4098 4.86685V20.1336C11.4098 20.4229 11.2949 20.7002 11.0904 20.9047C10.8859 21.1092 10.6085 21.2241 10.3193 21.2241H4.86685C4.57764 21.2241 4.30027 21.1092 4.09576 20.9047C3.89126 20.7002 3.77637 20.4229 3.77637 20.1336V4.86685ZM13.5907 4.86685C13.5907 4.57764 13.7056 4.30027 13.9101 4.09576C14.1146 3.89126 14.392 3.77637 14.6812 3.77637H20.1336C20.4229 3.77637 20.7002 3.89126 20.9047 4.09576C21.1092 4.30027 21.2241 4.57764 21.2241 4.86685V10.3193C21.2241 10.6085 21.1092 10.8859 20.9047 11.0904C20.7002 11.2949 20.4229 11.4098 20.1336 11.4098H14.6812C14.392 11.4098 14.1146 11.2949 13.9101 11.0904C13.7056 10.8859 13.5907 10.6085 13.5907 10.3193V4.86685ZM14.6812 13.5907C14.392 13.5907 14.1146 13.7056 13.9101 13.9101C13.7056 14.1146 13.5907 14.392 13.5907 14.6812V20.1336C13.5907 20.4229 13.7056 20.7002 13.9101 20.9047C14.1146 21.1092 14.392 21.2241 14.6812 21.2241H20.1336C20.4229 21.2241 20.7002 21.1092 20.9047 20.9047C21.1092 20.7002 21.2241 20.4229 21.2241 20.1336V14.6812C21.2241 14.392 21.1092 14.1146 20.9047 13.9101C20.7002 13.7056 20.4229 13.5907 20.1336 13.5907H14.6812Z" fill="#313131"/>
</svg>
