<svg width="25" height="25" viewBox="0 0 25 25" fill="none" xmlns="http://www.w3.org/2000/svg">
<path d="M10.5331 4.65201H5.08072V19.9188H10.5331V4.65201ZM20.3475 4.65201H14.8951V10.1044H20.3475V4.65201ZM20.3475 14.4664V19.9188H14.8951V14.4664H20.3475ZM3.99023 4.65201C3.99023 4.36279 4.10512 4.08542 4.30963 3.88092C4.51414 3.67641 4.7915 3.56152 5.08072 3.56152H10.5331C10.8224 3.56152 11.0997 3.67641 11.3042 3.88092C11.5087 4.08542 11.6236 4.36279 11.6236 4.65201V19.9188C11.6236 20.208 11.5087 20.4854 11.3042 20.6899C11.0997 20.8944 10.8224 21.0093 10.5331 21.0093H5.08072C4.7915 21.0093 4.51414 20.8944 4.30963 20.6899C4.10512 20.4854 3.99023 20.208 3.99023 19.9188V4.65201ZM13.8046 4.65201C13.8046 4.36279 13.9195 4.08542 14.124 3.88092C14.3285 3.67641 14.6059 3.56152 14.8951 3.56152H20.3475C20.6367 3.56152 20.9141 3.67641 21.1186 3.88092C21.3231 4.08542 21.438 4.36279 21.438 4.65201V10.1044C21.438 10.3936 21.3231 10.671 21.1186 10.8755C20.9141 11.08 20.6367 11.1949 20.3475 11.1949H14.8951C14.6059 11.1949 14.3285 11.08 14.124 10.8755C13.9195 10.671 13.8046 10.3936 13.8046 10.1044V4.65201ZM14.8951 13.3759C14.6059 13.3759 14.3285 13.4908 14.124 13.6953C13.9195 13.8998 13.8046 14.1772 13.8046 14.4664V19.9188C13.8046 20.208 13.9195 20.4854 14.124 20.6899C14.3285 20.8944 14.6059 21.0093 14.8951 21.0093H20.3475C20.6367 21.0093 20.9141 20.8944 21.1186 20.6899C21.3231 20.4854 21.438 20.208 21.438 19.9188V14.4664C21.438 14.1772 21.3231 13.8998 21.1186 13.6953C20.9141 13.4908 20.6367 13.3759 20.3475 13.3759H14.8951Z" fill="#313131"/>
</svg>
