<svg width="25" height="24" viewBox="0 0 25 24" fill="none" xmlns="http://www.w3.org/2000/svg">
<path d="M22.4651 2.86387H3.53164C3.16274 2.86387 2.80896 3.01041 2.54811 3.27126C2.28727 3.5321 2.14072 3.88589 2.14072 4.25478V19.7458C2.14072 20.1147 2.28727 20.4684 2.54811 20.7293C2.80896 20.9901 3.16274 21.1367 3.53164 21.1367H22.4651C22.834 21.1367 23.1877 20.9901 23.4486 20.7293C23.7094 20.4684 23.856 20.1147 23.856 19.7458V4.25478C23.856 3.88589 23.7094 3.5321 23.4486 3.27126C23.1877 3.01041 22.834 2.86387 22.4651 2.86387ZM22.7954 19.7458C22.7954 19.8334 22.7606 19.9174 22.6986 19.9793C22.6367 20.0413 22.5527 20.0761 22.4651 20.0761H3.53164C3.44403 20.0761 3.36002 20.0413 3.29808 19.9793C3.23613 19.9174 3.20133 19.8334 3.20133 19.7458V4.25478C3.20133 4.16718 3.23613 4.08317 3.29808 4.02122C3.36002 3.95928 3.44404 3.92448 3.53164 3.92448H22.4651C22.5527 3.92448 22.6367 3.95928 22.6986 4.02122C22.7606 4.08317 22.7954 4.16718 22.7954 4.25478V19.7458Z" fill="#313131" stroke="#313131" stroke-width="0.2"/>
<path d="M18.8865 18.0379H19.0365V17.8879V15.9253C19.0365 15.0737 18.3027 14.3493 17.2254 13.8465C16.1359 13.3381 14.6413 13.0277 12.9987 13.0277C11.356 13.0277 9.86143 13.3381 8.77195 13.8465C7.69465 14.3493 6.96084 15.0737 6.96084 15.9253V17.8879V18.0379H7.11084H18.8865ZM12.9987 14.1127C14.3942 14.1127 15.6508 14.3307 16.5531 14.6778C17.0047 14.8515 17.3599 15.0547 17.5995 15.2726C17.8392 15.4905 17.9514 15.7113 17.9514 15.9253V16.9529H8.04588V15.9253C8.04588 15.7113 8.15814 15.4905 8.39778 15.2726C8.63746 15.0547 8.99264 14.8515 9.44426 14.6778C10.3465 14.3307 11.6031 14.1127 12.9987 14.1127ZM15.0476 6.81101C14.5042 6.26759 13.7672 5.9623 12.9987 5.9623C12.2302 5.9623 11.4931 6.26759 10.9497 6.81101C10.4063 7.35442 10.101 8.09145 10.101 8.85995C10.101 9.62846 10.4063 10.3655 10.9497 10.9089C11.4931 11.4523 12.2302 11.7576 12.9987 11.7576C13.7672 11.7576 14.5042 11.4523 15.0476 10.9089C15.591 10.3655 15.8963 9.62846 15.8963 8.85995C15.8963 8.09145 15.591 7.35442 15.0476 6.81101ZM11.717 7.57825C12.0569 7.23832 12.5179 7.04735 12.9987 7.04735C13.4794 7.04735 13.9404 7.23832 14.2804 7.57825C14.6203 7.91818 14.8113 8.37922 14.8113 8.85995C14.8113 9.34069 14.6203 9.80173 14.2804 10.1417C13.9404 10.4816 13.4794 10.6726 12.9987 10.6726C12.5179 10.6726 12.0569 10.4816 11.717 10.1417C11.377 9.80173 11.1861 9.34069 11.1861 8.85995C11.1861 8.37922 11.377 7.91818 11.717 7.57825Z" fill="#313131" stroke="#313131" stroke-width="0.3"/>
</svg>
