<svg width="24" height="24" viewBox="0 0 24 24" fill="none" xmlns="http://www.w3.org/2000/svg">
<path d="M21.466 2.86387H2.53261C2.16372 2.86387 1.80994 3.01041 1.54909 3.27126C1.28824 3.5321 1.1417 3.88589 1.1417 4.25478V19.7458C1.1417 20.1147 1.28824 20.4684 1.54909 20.7293C1.80994 20.9901 2.16372 21.1367 2.53261 21.1367H21.466C21.8349 21.1367 22.1887 20.9901 22.4496 20.7293C22.7104 20.4684 22.857 20.1147 22.857 19.7458V4.25478C22.857 3.88589 22.7104 3.5321 22.4496 3.27126C22.1887 3.01041 21.8349 2.86387 21.466 2.86387ZM21.7963 19.7458C21.7963 19.8334 21.7615 19.9174 21.6996 19.9793C21.6377 20.0413 21.5536 20.0761 21.466 20.0761H2.53261C2.44501 20.0761 2.361 20.0413 2.29905 19.9793C2.23711 19.9174 2.20231 19.8334 2.20231 19.7458V4.25478C2.20231 4.16718 2.23711 4.08317 2.29905 4.02122C2.361 3.95928 2.44501 3.92448 2.53261 3.92448H21.466C21.5536 3.92448 21.6377 3.95928 21.6996 4.02122C21.7615 4.08317 21.7963 4.16718 21.7963 4.25478V19.7458Z" fill="#313131" stroke="#313131" stroke-width="0.2"/>
<path d="M17.8875 18.0379H18.0375V17.8879V15.9253C18.0375 15.0737 17.3036 14.3493 16.2263 13.8465C15.1369 13.3381 13.6423 13.0277 11.9996 13.0277C10.3569 13.0277 8.86241 13.3381 7.77293 13.8465C6.69563 14.3493 5.96182 15.0737 5.96182 15.9253V17.8879V18.0379H6.11182H17.8875ZM11.9996 14.1127C13.3952 14.1127 14.6518 14.3307 15.554 14.6778C16.0056 14.8515 16.3608 15.0547 16.6005 15.2726C16.8402 15.4905 16.9524 15.7113 16.9524 15.9253V16.9529H7.04686V15.9253C7.04686 15.7113 7.15911 15.4905 7.39876 15.2726C7.63843 15.0547 7.99362 14.8515 8.44524 14.6778C9.34748 14.3307 10.6041 14.1127 11.9996 14.1127ZM14.0486 6.81101C13.5052 6.26759 12.7681 5.9623 11.9996 5.9623C11.2311 5.9623 10.4941 6.26759 9.95069 6.81101C9.40727 7.35442 9.10199 8.09145 9.10199 8.85995C9.10199 9.62846 9.40727 10.3655 9.95069 10.9089C10.4941 11.4523 11.2311 11.7576 11.9996 11.7576C12.7681 11.7576 13.5052 11.4523 14.0486 10.9089C14.592 10.3655 14.8973 9.62846 14.8973 8.85995C14.8973 8.09145 14.592 7.35442 14.0486 6.81101ZM10.7179 7.57825C11.0579 7.23832 11.5189 7.04735 11.9996 7.04735C12.4804 7.04735 12.9414 7.23832 13.2813 7.57825C13.6213 7.91818 13.8122 8.37922 13.8122 8.85995C13.8122 9.34069 13.6213 9.80173 13.2813 10.1417C12.9414 10.4816 12.4804 10.6726 11.9996 10.6726C11.5189 10.6726 11.0579 10.4816 10.7179 10.1417C10.378 9.80173 10.187 9.34069 10.187 8.85995C10.187 8.37922 10.378 7.91818 10.7179 7.57825Z" fill="#313131" stroke="#313131" stroke-width="0.3"/>
</svg>
