<svg width="25" height="24" viewBox="0 0 25 24" fill="none" xmlns="http://www.w3.org/2000/svg">
<path d="M11.3738 3.59621C11.6933 3.33989 12.0907 3.2002 12.5003 3.2002C12.9099 3.2002 13.3072 3.33989 13.6267 3.59621L19.8269 8.57077C20.0373 8.73952 20.207 8.95338 20.3236 9.19654C20.4402 9.4397 20.5007 9.70595 20.5005 9.97562V18.9999C20.5005 19.4773 20.3109 19.9352 19.9733 20.2728C19.6357 20.6103 19.1779 20.8 18.7005 20.8H16.3004C15.823 20.8 15.3651 20.6103 15.0276 20.2728C14.69 19.9352 14.5003 19.4773 14.5003 18.9999V14.1998C14.5003 14.0406 14.4371 13.888 14.3246 13.7755C14.2121 13.663 14.0594 13.5997 13.9003 13.5997H11.1002C10.9411 13.5997 10.7885 13.663 10.6759 13.7755C10.5634 13.888 10.5002 14.0406 10.5002 14.1998V18.9999C10.5002 19.4773 10.3106 19.9352 9.97298 20.2728C9.6354 20.6103 9.17755 20.8 8.70014 20.8H6.30006C5.82265 20.8 5.3648 20.6103 5.02723 20.2728C4.68965 19.9352 4.5 19.4773 4.5 18.9999V9.97562C4.5 9.43 4.74801 8.91318 5.17362 8.57157L11.3738 3.59701V3.59621ZM12.8755 4.53224C12.769 4.44693 12.6367 4.40045 12.5003 4.40045C12.3639 4.40045 12.2315 4.44693 12.1251 4.53224L5.92485 9.5068C5.85472 9.563 5.79811 9.63423 5.7592 9.71524C5.72029 9.79624 5.70007 9.88495 5.70004 9.97482V18.9991C5.70004 19.3311 5.96885 19.5991 6.30006 19.5991H8.70014C8.85928 19.5991 9.01189 19.5359 9.12442 19.4234C9.23694 19.3109 9.30016 19.1583 9.30016 18.9991V14.199C9.30016 13.7216 9.48981 13.2637 9.82739 12.9261C10.165 12.5885 10.6228 12.3989 11.1002 12.3989H13.9003C14.1368 12.3989 14.3709 12.4455 14.5894 12.536C14.8078 12.6265 15.0063 12.7592 15.1734 12.9264C15.3406 13.0936 15.4732 13.2922 15.5636 13.5107C15.654 13.7291 15.7005 13.9633 15.7004 14.1998V18.9999C15.7004 19.3319 15.9692 19.5999 16.3004 19.5999H18.7005C18.8596 19.5999 19.0122 19.5367 19.1248 19.4242C19.2373 19.3117 19.3005 19.1591 19.3005 18.9999V9.97562C19.3006 9.88582 19.2805 9.79715 19.2417 9.71615C19.2029 9.63515 19.1465 9.56388 19.0765 9.5076L12.8763 4.53304L12.8755 4.53224Z" fill="#313131"/>
</svg>
