<svg width="25" height="25" viewBox="0 0 25 25" fill="none" xmlns="http://www.w3.org/2000/svg">
<path d="M20.8175 5.34131H4.6144C4.30744 5.34131 4.01306 5.46324 3.79602 5.68029C3.57897 5.89734 3.45703 6.19172 3.45703 6.49867V18.0723C3.45703 18.3793 3.57897 18.6736 3.79602 18.8907C4.01306 19.1077 4.30744 19.2297 4.6144 19.2297H20.8175C21.1244 19.2297 21.4188 19.1077 21.6359 18.8907C21.8529 18.6736 21.9749 18.3793 21.9749 18.0723V6.49867C21.9749 6.19172 21.8529 5.89734 21.6359 5.68029C21.4188 5.46324 21.1244 5.34131 20.8175 5.34131V5.34131ZM19.9263 18.0723H5.57501L9.62578 13.8827L8.79248 13.0783L4.6144 17.401V7.37827L11.8074 14.5366C12.0243 14.7521 12.3176 14.8731 12.6234 14.8731C12.9291 14.8731 13.2224 14.7521 13.4393 14.5366L20.8175 7.19888V17.3258L16.5584 13.0667L15.7424 13.8827L19.9263 18.0723ZM5.37247 6.49867H19.88L12.6234 13.7148L5.37247 6.49867Z" fill="#313131"/>
</svg>
