<svg width="25" height="24" viewBox="0 0 25 24" fill="none" xmlns="http://www.w3.org/2000/svg">
<path d="M10.3193 4.36685H4.86685V19.6336H10.3193V4.36685ZM20.1336 4.36685H14.6812V9.81927H20.1336V4.36685ZM20.1336 14.1812V19.6336H14.6812V14.1812H20.1336ZM3.77637 4.36685C3.77637 4.07764 3.89126 3.80027 4.09576 3.59576C4.30027 3.39126 4.57764 3.27637 4.86685 3.27637H10.3193C10.6085 3.27637 10.8859 3.39126 11.0904 3.59576C11.2949 3.80027 11.4098 4.07764 11.4098 4.36685V19.6336C11.4098 19.9229 11.2949 20.2002 11.0904 20.4047C10.8859 20.6092 10.6085 20.7241 10.3193 20.7241H4.86685C4.57764 20.7241 4.30027 20.6092 4.09576 20.4047C3.89126 20.2002 3.77637 19.9229 3.77637 19.6336V4.36685ZM13.5907 4.36685C13.5907 4.07764 13.7056 3.80027 13.9101 3.59576C14.1146 3.39126 14.392 3.27637 14.6812 3.27637H20.1336C20.4229 3.27637 20.7002 3.39126 20.9047 3.59576C21.1092 3.80027 21.2241 4.07764 21.2241 4.36685V9.81927C21.2241 10.1085 21.1092 10.3859 20.9047 10.5904C20.7002 10.7949 20.4229 10.9098 20.1336 10.9098H14.6812C14.392 10.9098 14.1146 10.7949 13.9101 10.5904C13.7056 10.3859 13.5907 10.1085 13.5907 9.81927V4.36685ZM14.6812 13.0907C14.392 13.0907 14.1146 13.2056 13.9101 13.4101C13.7056 13.6146 13.5907 13.892 13.5907 14.1812V19.6336C13.5907 19.9229 13.7056 20.2002 13.9101 20.4047C14.1146 20.6092 14.392 20.7241 14.6812 20.7241H20.1336C20.4229 20.7241 20.7002 20.6092 20.9047 20.4047C21.1092 20.2002 21.2241 19.9229 21.2241 19.6336V14.1812C21.2241 13.892 21.1092 13.6146 20.9047 13.4101C20.7002 13.2056 20.4229 13.0907 20.1336 13.0907H14.6812Z" fill="#313131"/>
</svg>
