<svg width="26" height="25" viewBox="0 0 26 25" fill="none" xmlns="http://www.w3.org/2000/svg">
<path fill-rule="evenodd" clip-rule="evenodd" d="M13.0041 0.125C10.0346 0.126541 7.16248 1.17828 4.90129 3.09216C2.6401 5.00603 1.1373 7.65724 0.661598 10.5717C0.185899 13.4862 0.768319 16.4739 2.30473 19.0006C3.84114 21.5273 6.23134 23.4282 9.04794 24.3634C9.66933 24.4787 9.90338 24.0936 9.90338 23.7662C9.90338 23.4387 9.89095 22.4893 9.88681 21.4513C6.40704 22.203 5.67173 19.9828 5.67173 19.9828C5.1042 18.5412 4.28396 18.1622 4.28396 18.1622C3.14889 17.392 4.36889 17.4064 4.36889 17.4064C5.62617 17.4949 6.28691 18.6895 6.28691 18.6895C7.40127 20.5904 9.21364 20.0405 9.92617 19.7192C10.038 18.9139 10.3632 18.3661 10.7215 18.0551C7.94187 17.7421 5.02134 16.6752 5.02134 11.9095C5.00411 10.6736 5.46538 9.47832 6.30969 8.57106C6.18127 8.25802 5.75251 6.99348 6.43189 5.27584C6.43189 5.27584 7.48205 4.9422 9.87232 6.55068C11.9225 5.9932 14.0857 5.9932 16.1359 6.55068C18.5241 4.9422 19.5722 5.27584 19.5722 5.27584C20.2536 6.98936 19.8249 8.2539 19.6965 8.57106C20.5435 9.47847 21.0057 10.6758 20.9869 11.9137C20.9869 16.6897 18.0601 17.7421 15.2763 18.0489C15.7237 18.4361 16.1235 19.192 16.1235 20.3535C16.1235 22.0176 16.109 23.3563 16.109 23.7662C16.109 24.0977 16.3347 24.4849 16.9686 24.3634C19.7855 23.4281 22.1759 21.5268 23.7123 18.9997C25.2487 16.4726 25.8308 13.4844 25.3546 10.5697C24.8783 7.65494 23.3748 5.0037 21.1128 3.09016C18.8509 1.17661 15.9781 0.125564 13.0083 0.125H13.0041Z" fill="white"/>
<path d="M5.23214 17.983C5.20522 18.0448 5.10579 18.0633 5.02501 18.0201C4.94423 17.9768 4.88417 17.8965 4.91317 17.8327C4.94217 17.7688 5.03952 17.7523 5.1203 17.7956C5.20108 17.8388 5.26321 17.9212 5.23214 17.983Z" fill="white"/>
<path d="M5.73946 18.5453C5.69657 18.5668 5.64749 18.5728 5.60064 18.5623C5.55378 18.5517 5.51207 18.5254 5.48262 18.4876C5.40184 18.4011 5.38526 18.2817 5.4474 18.2281C5.50954 18.1746 5.6214 18.1993 5.70218 18.2858C5.78296 18.3723 5.8016 18.4917 5.73946 18.5453Z" fill="white"/>
<path d="M6.23267 19.26C6.15603 19.3135 6.02553 19.26 5.95304 19.1529C5.93299 19.1337 5.91705 19.1107 5.90616 19.0852C5.89527 19.0597 5.88965 19.0323 5.88965 19.0046C5.88965 18.9769 5.89527 18.9495 5.90616 18.9241C5.91705 18.8986 5.93299 18.8756 5.95304 18.8563C6.02967 18.8049 6.16017 18.8563 6.23267 18.9614C6.30516 19.0664 6.30723 19.2065 6.23267 19.26V19.26Z" fill="white"/>
<path d="M6.90191 19.9519C6.83356 20.0281 6.69478 20.0075 6.58086 19.9046C6.46694 19.8016 6.44 19.6615 6.50836 19.5874C6.57671 19.5132 6.71549 19.5338 6.83355 19.6348C6.95162 19.7357 6.9744 19.8778 6.90191 19.9519V19.9519Z" fill="white"/>
<path d="M7.83996 20.3555C7.80889 20.4523 7.66804 20.4956 7.52719 20.4544C7.38635 20.4132 7.29314 20.2979 7.32006 20.199C7.34699 20.1001 7.48991 20.0548 7.63283 20.1001C7.77575 20.1454 7.86689 20.2546 7.83996 20.3555Z" fill="white"/>
<path d="M8.86361 20.4257C8.86361 20.5266 8.74762 20.6131 8.59849 20.6151C8.44935 20.6172 8.32715 20.5348 8.32715 20.4339C8.32715 20.333 8.44313 20.2465 8.59227 20.2444C8.7414 20.2424 8.86361 20.3227 8.86361 20.4257Z" fill="white"/>
<path d="M9.81616 20.2669C9.8348 20.3678 9.73124 20.4729 9.58211 20.4976C9.43297 20.5223 9.30248 20.4626 9.28384 20.3637C9.2652 20.2649 9.37291 20.1578 9.5179 20.131C9.66289 20.1042 9.79752 20.166 9.81616 20.2669Z" fill="white"/>
</svg>
