<svg width="24" height="14" viewBox="0 0 24 14" fill="none" xmlns="http://www.w3.org/2000/svg">
<path d="M13.1096 6.54886C13.1096 10.1656 10.2028 13.0975 6.6174 13.0975C3.03196 13.0975 0.125 10.1649 0.125 6.54886C0.125 2.9328 3.03173 0 6.6174 0C10.2031 0 13.1096 2.93214 13.1096 6.54886Z" fill="white"/>
<path d="M20.2317 6.54879C20.2317 9.95315 18.7783 12.714 16.9855 12.714C15.1926 12.714 13.7393 9.95315 13.7393 6.54879C13.7393 3.14443 15.1924 0.383545 16.9852 0.383545C18.7781 0.383545 20.2314 3.14354 20.2314 6.54879" fill="white"/>
<path d="M23.145 6.54897C23.145 9.59844 22.6339 12.0721 22.0033 12.0721C21.3727 12.0721 20.8618 9.5991 20.8618 6.54897C20.8618 3.49883 21.3729 1.02588 22.0033 1.02588C22.6337 1.02588 23.145 3.49861 23.145 6.54897Z" fill="white"/>
</svg>
