<svg width="48" height="48" viewBox="0 0 48 48" fill="none" xmlns="http://www.w3.org/2000/svg">
<g clip-path="url(#clip0_103_1266)">
<path fill-rule="evenodd" clip-rule="evenodd" d="M24.2047 1.91553C18.6606 1.9184 13.2983 3.88201 9.07663 7.45523C4.85496 11.0285 2.04921 15.9783 1.16108 21.4197C0.272946 26.861 1.36033 32.4391 4.22882 37.1564C7.09731 41.8738 11.5598 45.4228 16.8185 47.1689C17.9786 47.3842 18.4156 46.6651 18.4156 46.0538C18.4156 45.4424 18.3924 43.6698 18.3846 41.7318C11.8879 43.1353 10.515 38.9903 10.515 38.9903C9.45545 36.2987 7.92407 35.5912 7.92407 35.5912C5.80488 34.1531 8.08263 34.18 8.08263 34.18C10.43 34.3454 11.6636 36.5755 11.6636 36.5755C13.7441 40.1246 17.1278 39.0979 18.4581 38.4981C18.6669 36.9947 19.2741 35.9718 19.9431 35.3912C14.7534 34.8068 9.30076 32.815 9.30076 23.9174C9.2686 21.6098 10.1298 19.3783 11.7061 17.6844C11.4664 17.0999 10.6659 14.739 11.9343 11.5322C11.9343 11.5322 13.8949 10.9093 18.3576 13.9123C22.1854 12.8715 26.224 12.8715 30.0518 13.9123C34.5106 10.9093 36.4673 11.5322 36.4673 11.5322C37.7396 14.7313 36.9391 17.0923 36.6994 17.6844C38.2807 19.3785 39.1437 21.614 39.1086 23.9251C39.1086 32.8419 33.6443 34.8068 28.4469 35.3797C29.2822 36.1026 30.0286 37.5137 30.0286 39.6824C30.0286 42.7893 30.0015 45.2886 30.0015 46.0538C30.0015 46.6728 30.423 47.3957 31.6063 47.1689C36.8656 45.4226 41.3286 41.8729 44.197 37.1548C47.0654 32.4366 48.1522 26.8577 47.2631 21.4159C46.374 15.974 43.5668 11.0241 39.3438 7.4515C35.1207 3.87889 29.7571 1.91658 24.2124 1.91553H24.2047Z" fill="#191717"/>
<path d="M9.6953 35.2567C9.64502 35.3721 9.4594 35.4067 9.30858 35.326C9.15777 35.2452 9.04563 35.0952 9.09977 34.976C9.15391 34.8568 9.33566 34.8261 9.48648 34.9068C9.6373 34.9876 9.7533 35.1414 9.6953 35.2567Z" fill="#191717"/>
<path d="M10.6431 36.3064C10.563 36.3465 10.4714 36.3577 10.3839 36.3381C10.2964 36.3184 10.2185 36.2692 10.1636 36.1987C10.0127 36.0372 9.98178 35.8142 10.0978 35.7142C10.2138 35.6143 10.4226 35.6604 10.5735 35.8219C10.7243 35.9834 10.7591 36.2064 10.6431 36.3064Z" fill="#191717"/>
<path d="M11.5623 37.6404C11.4192 37.7404 11.1756 37.6404 11.0402 37.4405C11.0028 37.4046 10.973 37.3616 10.9527 37.314C10.9324 37.2664 10.9219 37.2153 10.9219 37.1636C10.9219 37.1119 10.9324 37.0608 10.9527 37.0132C10.973 36.9656 11.0028 36.9226 11.0402 36.8868C11.1833 36.7906 11.4269 36.8868 11.5623 37.0829C11.6976 37.279 11.7015 37.5404 11.5623 37.6404V37.6404Z" fill="#191717"/>
<path d="M12.812 38.9325C12.6843 39.0747 12.4253 39.0363 12.2126 38.844C11.9999 38.6518 11.9496 38.3903 12.0772 38.2519C12.2048 38.1135 12.4639 38.1519 12.6843 38.3403C12.9048 38.5287 12.9473 38.794 12.812 38.9325V38.9325Z" fill="#191717"/>
<path d="M14.5633 39.686C14.5053 39.8667 14.2423 39.9474 13.9793 39.8705C13.7164 39.7936 13.5424 39.5783 13.5926 39.3937C13.6429 39.2092 13.9097 39.1246 14.1766 39.2092C14.4434 39.2938 14.6136 39.4976 14.5633 39.686Z" fill="#191717"/>
<path d="M16.4742 39.817C16.4742 40.0054 16.2577 40.1669 15.9792 40.1707C15.7008 40.1746 15.4727 40.0207 15.4727 39.8323C15.4727 39.6439 15.6892 39.4824 15.9676 39.4786C16.2461 39.4747 16.4742 39.6247 16.4742 39.817Z" fill="#191717"/>
<path d="M18.2517 39.5208C18.2865 39.7092 18.0931 39.9053 17.8147 39.9515C17.5363 39.9976 17.2926 39.8861 17.2578 39.7015C17.223 39.517 17.4241 39.317 17.6948 39.267C17.9655 39.2171 18.2169 39.3324 18.2517 39.5208Z" fill="#191717"/>
</g>
<defs>
<clipPath id="clip0_103_1266">
<rect x="0.712891" y="0.740723" width="47" height="47" rx="6" fill="white"/>
</clipPath>
</defs>
</svg>
