<svg width="23" height="23" viewBox="0 0 23 23" fill="none" xmlns="http://www.w3.org/2000/svg">
<g clip-path="url(#clip0_103_4174)">
<path d="M0.125 3.15986C0.125 2.42786 0.381201 1.82398 0.893581 1.3482C1.40596 0.872408 2.07208 0.634521 2.89189 0.634521C3.69708 0.634521 4.34853 0.868741 4.84628 1.33722C5.35866 1.82033 5.61487 2.44982 5.61487 3.22574C5.61487 3.92844 5.366 4.51401 4.86824 4.98249C4.35586 5.4656 3.68243 5.70716 2.84797 5.70716H2.82601C2.02083 5.70716 1.36938 5.4656 0.871622 4.98249C0.373867 4.49939 0.125 3.89183 0.125 3.15986ZM0.410473 22.3744V7.70547H5.28547V22.3744H0.410473ZM7.98649 22.3744H12.8615V14.1835C12.8615 13.6711 12.9201 13.2758 13.0372 12.9977C13.2421 12.4999 13.5532 12.079 13.9704 11.735C14.3877 11.391 14.911 11.219 15.5405 11.219C17.1802 11.219 18 12.3243 18 14.5349V22.3744H22.875V13.9639C22.875 11.7972 22.3626 10.1539 21.3378 9.03401C20.3131 7.91408 18.9589 7.35412 17.2753 7.35412C15.3868 7.35412 13.9155 8.16662 12.8615 9.79162V9.83553H12.8395L12.8615 9.79162V7.70547H7.98649C8.01576 8.17393 8.03041 9.63056 8.03041 12.0754C8.03041 14.5202 8.01576 17.9532 7.98649 22.3744Z" fill="white"/>
</g>
<defs>
<clipPath id="clip0_103_4174">
<rect x="0.125" y="0.125" width="22.75" height="22.75" fill="white"/>
</clipPath>
</defs>
</svg>
